<svg width="68" height="55" viewBox="0 0 68 55" fill="none" xmlns="http://www.w3.org/2000/svg">
<path d="M15.6763 13.1611H10.0739H4.47158C2.51413 13.1611 0.96167 14.7136 0.96167 16.671V29.3607C0.96167 31.3182 2.51413 32.8706 4.47158 32.8706H5.34906V51.3652C5.34906 52.8501 6.56403 54.0651 8.04899 54.0651H12.1664C13.6514 54.0651 14.8663 52.8501 14.8663 51.3652V32.8706H15.7438C17.7013 32.8706 19.2537 31.3182 19.2537 29.3607V16.671C19.1862 14.7811 17.6338 13.1611 15.6763 13.1611Z" fill="#1F64FF"/>
<path d="M7.10416 10.7988C7.98163 11.3388 8.99411 11.6762 10.0741 11.6762C11.1541 11.6762 12.1665 11.3388 13.044 10.7988C14.529 9.8538 15.5414 8.16634 15.5414 6.20889C15.5414 3.17146 13.1115 0.741524 10.0741 0.741524C7.03666 0.741524 4.60672 3.17146 4.60672 6.20889C4.60672 8.16634 5.61919 9.8538 7.10416 10.7988Z" fill="#1F64FF"/>
<path d="M35.0487 13.1611H29.4463H23.844C21.8865 13.1611 20.334 14.7136 20.334 16.671V29.3607C20.334 31.3182 21.8865 32.8706 23.844 32.8706H24.7214V51.3652C24.7214 52.8501 25.9364 54.0651 27.4214 54.0651H31.5388C33.0237 54.0651 34.2387 52.8501 34.2387 51.3652V32.8706H35.1162C37.0736 32.8706 38.6261 31.3182 38.6261 29.3607V16.671C38.5586 14.7811 37.0061 13.1611 35.0487 13.1611Z" fill="#1F64FF"/>
<path d="M26.4761 10.7988C27.3536 11.3388 28.3661 11.6762 29.446 11.6762C30.526 11.6762 31.5385 11.3388 32.416 10.7988C33.9009 9.8538 34.9134 8.16634 34.9134 6.20889C34.9134 3.17146 32.4835 0.741524 29.446 0.741524C26.4086 0.741524 23.9787 3.17146 23.9787 6.20889C23.9787 8.16634 24.9911 9.8538 26.4761 10.7988Z" fill="#1F64FF"/>
<path d="M63.5325 13.1611H57.9301H52.3278C50.3703 13.1611 48.8178 14.7136 48.8178 16.671V29.3607C48.8178 31.3182 50.3703 32.8706 52.3278 32.8706H53.2052V51.3652C53.2052 52.8501 54.4202 54.0651 55.9052 54.0651H60.0226C61.5075 54.0651 62.7225 52.8501 62.7225 51.3652V32.8706H63.6C65.5574 32.8706 67.1099 31.3182 67.1099 29.3607V16.671C67.0424 14.7811 65.4899 13.1611 63.5325 13.1611Z" fill="white" stroke="#1F64FF" stroke-miterlimit="10"/>
<path d="M54.9601 10.7988C55.8376 11.3388 56.85 11.6762 57.93 11.6762C59.01 11.6762 60.0225 11.3388 60.8999 10.7988C62.3849 9.8538 63.3974 8.16634 63.3974 6.20889C63.3974 3.17146 60.9674 0.741524 57.93 0.741524C54.8926 0.741524 52.4626 3.17146 52.4626 6.20889C52.4626 8.16634 53.4751 9.8538 54.9601 10.7988Z" fill="white" stroke="#1F64FF" stroke-miterlimit="10"/>
</svg>
